<svg viewBox="0 0 864 864">
  <path fill-rule="evenodd" d="M570.814 415.282c2.254 5.811 6.015 10.713 5.499 15.113-1.318 11.234 7.356 16.096 11.83 23.844 5.207 9.021 8.858 19.877 9.822 30.248 4.398 47.342 7.046 94.847 11.441 142.189 3.557 38.319 8.671 76.496 13.172 114.728 1.335 11.333 6.851 19.875 17.777 24.065 10.867 4.167 16.008 12.203 16.663 23.422.439 7.501.886 15.031.704 22.534-.189 7.751-4.808 13.548-11.733 15.661-16.016 4.889-32.145 10.679-48.625 12.497-29.503 3.253-59.346 3.313-88.944 5.889-8.619.75-16.743 6.061-25.347 8.328-30.412 8.021-60.492 8.953-89.694-5.31-2.443-1.192-5.884-1.362-8.611-.799-45.046 9.323-89.673 7.225-133.992-4.497-1.158-.307-2.25-.853-3.394-1.222-24.098-7.812-30.54-17.776-28.5-42.921 1.003-12.368 3.939-22.828 17.002-28.131 2.877-1.167 5.512-6.302 5.856-9.846 7.021-72.164 13.385-144.394 20.593-216.539 2.718-27.204 7.21-54.232 10.957-81.332.329-2.371.349-5.68 1.844-6.85 10.516-8.223 7.241-18.867 6.954-29.709-.229-8.655-2.774-15.017-8.555-20.813-8.722-8.748-17.887-17.14-25.847-26.543-20.728-24.488-24.154-53.703-20.938-84.193 5.247-49.735 26.075-93.994 49.361-137.282 8.394-15.604 17.629-30.758 25.875-46.436 3.736-7.103 6.632-14.804 8.806-22.542 6.099-21.71 19.036-37.48 39.862-45.948 12.741-5.181 26.199-8.574 39.133-13.321 3.809-1.397 8.089-3.959 10.12-7.244 4.274-6.914 9.611-11.81 17.625-12.559 10.439-.976 20.982-1.784 31.432-1.376 7.12.278 12.85 4.115 15.854 11.541.876 2.167 4.574 4.117 7.219 4.5 28.235 4.085 52.88 15.583 70.199 38.396 7.689 10.13 11.196 23.503 16.234 35.557 3.785 9.055 5.639 19.176 10.673 27.404 24.9 40.701 46.685 82.592 57.405 129.597 7.283 31.927 10.495 63.401-2.753 94.707-11.499 27.188-31.263 47.461-52.979 65.193z" clip-rule="evenodd"/>
  <g fill="#9C298C" fill-rule="evenodd" clip-rule="evenodd">
    <path d="M448.446 265.98c-.172 10.677-11.819 20.806-23.896 20.78-9.538-.021-19.652-11.2-19.388-21.428.302-11.678 10.885-21.638 22.575-21.247 11.587.387 20.897 10.23 20.709 21.895zM365.067 305.543c9.688-.147 13.785 3.154 16.096 12.797.487 2.028 1.127 4.07 2.048 5.932 4.093 8.274 2.732 14.309-4.631 19.799-7.931 5.913-16.095 5.655-22.47-.692-1.066-1.062-2.02-2.407-3.31-3.042-8.997-4.421-10.527-11.548-7.558-20.327a21.25 21.25 0 0 1 19.825-14.467zM517.544 301.149c-3.133-6.654-6.596-13.408-9.449-20.41-.933-2.289-1.299-5.815-.171-7.756 4.082-7.021 10.628-10.329 18.84-9.955 7.865.359 13.664 4.261 17.453 10.966.856 1.515.914 3.895.467 5.656-1.587 6.256-3.551 12.418-5.314 18.417l-21.826 3.082zM496.783 337.004c-15.762-11.546-22.864-11.777-39.57-1.596-3.001-8.657-.525-16.514 7.028-22.318 7.296-5.606 17.465-5.764 25.12-.388 7.644 5.368 10.576 14.38 7.422 24.302z"/>
  </g>
  <g fill="#00A8DE" fill-rule="evenodd" clip-rule="evenodd">
    <path d="M316.026 360.757c.046-12.155 9.894-21.885 21.827-21.565 11.63.312 20.97 9.998 20.9 21.671-.073 12.059-10.007 21.843-21.912 21.58-11.536-.255-20.859-9.967-20.815-21.686zM257.564 297.65c-13.634-.406-20.719-9.298-18.191-22.076 3.32-16.785 8.85-22.444 21.02-20.226 3.123.57 6.076 3.765 8.422 6.372 1.924 2.136 2.148 6.231 4.311 7.647 7.61 4.979 5.786 12.1 2.583 17.15-3.015 4.751-9.291 7.502-14.316 10.855-1.072.717-2.941.237-3.829.278zM535.196 345.119c-8.054 2.815-19.299-2.226-23.616-13.285-4.067-10.42.806-22.344 11.105-27.172 10.15-4.758 22.764-.636 27.698 9.55.773 1.598-.647 4.648-1.717 6.677-3.756 7.129-7.803 14.105-13.47 24.23zM379.25 253.526c-3.906 1.355-9.041 2.773-13.857 4.909-4.702 2.084-6.243.545-7.458-4.037-1.488-5.613-4.174-10.899-5.933-16.456-.723-2.287-1.238-5.268-.381-7.32 4.133-9.903 17.131-14.513 27.47-10.153 10.43 4.399 15.779 16.442 11.894 26.778-1.779 4.736-3.803 9.121-11.735 6.279zM558.129 400.647c-4.186-11.612-7.506-20.827-11.586-32.148 4.287-8.546 14.924-12.764 25.782-7.898 10.919 4.893 15.887 16.851 11.512 27.716-4.45 11.054-15.947 15.73-25.708 12.33zM575.374 266.582c3.36-13.178 14.475-20.355 26.812-16.403 12.11 3.88 18.009 15.229 14.63 24.495-9.427 4.193-17.4 7.741-24.408 10.857l-17.034-18.949zM417.027 343.1c8.347-6.073 18.051-5.872 25.972 1.137 7.715 6.826 9.525 18.353 4.242 27.019-5.31 8.711-14.896 12.222-24.016 9.223.808-6.692 3.005-13.47 1.99-19.726-.99-6.102-5.265-11.668-8.188-17.653z"/>
  </g>
  <g fill="#FFEC5F" fill-rule="evenodd" clip-rule="evenodd">
    <path d="M293.374 232.27c11.621.033 21.117 9.476 21.269 21.151.154 11.797-9.993 22.19-21.528 22.049-11.195-.136-21.26-10.125-21.544-21.383-.295-11.598 9.952-21.851 21.803-21.817zM300.39 358.697c5.21.57 11.509 1.304 12.448 9.809.188 1.708 1.231 3.375 2.088 4.946 5.805 10.654 5.391 15.792-1.911 22.49-7.04 6.458-17.858 7.401-25.846 2.252-8.201-5.286-11.82-15.047-9.013-24.31 2.803-9.253 11.155-15.311 22.234-15.187zM562.36 224.796c9.376-.018 15.985 4.376 19.812 12.833 2.352 5.198 3.488 10.058-2.938 13.887-2.61 1.555-4.412 4.872-5.961 7.724-4.506 8.293-9.849 10.383-18.722 6.871-8.879-3.514-15.169-14.217-13.601-23.141 1.884-10.706 10.622-18.118 21.41-18.174zM336.184 328.902c-1.266 1.336-4.066 4.837-7.426 7.677-2.687 2.27-6.841 3.088-8.968 5.681-5.829 7.103-11.664 4.557-17.241.562-5.424-3.884-10.619-8.309-5.824-16.31 1.314-2.195 1.683-5.097 1.986-7.731 1.295-11.246 7.716-16.197 19.129-14.529 10.708 1.565 18.276 10.263 18.344 24.65zM435.706 237.354l-31.973 10.362c-9.18-6.465-12.507-18.865-6.106-28.705 6.285-9.66 18.707-12.938 28.453-7.507 10.339 5.762 13.736 17.264 9.626 25.85zM465.719 302.216c-1.678 2.739-3.249 5.551-5.061 8.199-2.343 3.427-5.957 6.393-7.104 10.144-2.387 7.808-7.539 7.437-13.33 5.78-5.545-1.587-10.766-3.093-8.862-11.509.958-4.234-.598-9.709-2.671-13.781-2.471-4.851-1.24-7.642 2.2-10.855 6.679-6.237 14.494-7.405 22.585-4.335 6.712 2.547 12.161 6.916 12.243 16.357zM625.936 302.822c-.252 4.801.281 9.834-1.045 14.318-.816 2.76-4.138 5.529-6.982 6.647-1.607.632-4.739-1.785-6.812-3.329-4.713-3.51-9.48-7.039-13.662-11.137-2.342-2.295-5.083-5.781-5.004-8.658.268-9.65 8.782-17.927 18.442-19.258 9.747-1.345 14.447 2.581 14.744 12.39.091 3.003.014 6.012.014 9.017l.305.01zM454.535 367.976c7.437 9.937 17.151 13.207 28.715 10.892 4.371 14.74-.937 21.897-15.593 21.434-4.496-.142-9-.77-13.475-.582-5.659.238-9.163-2.126-10.82-7.39-1.585-5.036-2.455-9.542 3.028-13.498 3.203-2.311 5.018-6.54 8.145-10.856z"/>
  </g>
  <g fill="#F4783B" fill-rule="evenodd" clip-rule="evenodd">
    <path d="M406.39 333.741c-11.897.221-21.325-8.736-21.644-20.563-.322-11.948 9.23-22.396 20.778-22.729 11.45-.329 21.844 10.016 21.927 21.825.081 11.528-9.458 21.25-21.061 21.467zM294.719 318.207c-.311 7.577-4.705 14.427-13.241 17.911-8.459 3.452-16.598 2.1-23.171-4.555-6.442-6.523-8.863-14.482-4.797-22.988 1.411-2.951 5.223-4.953 8.273-6.85 1.949-1.211 4.628-1.179 6.784-2.144 14.134-6.32 26.197 1.427 26.152 18.626zM333.838 233.484c13.751.802 23.763 14.816 19.458 27.504-1.873 5.522-3.822 10.48-12.041 8.201-3.806-1.056-8.578 1.771-12.977 2.306-3.129.379-7.071.918-9.318-.594-1.608-1.083-1.331-5.445-1.32-8.34.015-4.165 1.184-8.394.746-12.475-1.248-11.631 3.775-17.283 15.452-16.602zM466.14 288.487c-9.658-4.783-10.528-12.06-7.7-20.286 3.243-9.435 11.794-14.911 21.638-14.374 10.285.561 17.22 7.434 20.214 21.072-14.444-3.357-26.451-.259-34.152 13.588zM499.599 391.139c-2.058-3.671-4.587-7.174-5.989-11.081-.795-2.213-.303-5.307.591-7.626 2.41-6.26 6.434-12.102 7.704-18.526.903-4.573 2.391-5.932 6.396-6.604 9.016-1.512 23.16 4.487 23.98 19.337-14.032.501-24.565 6.455-28.199 21.44l-4.483 3.06z"/>
  </g>
  <g fill="#FFF" fill-rule="evenodd" clip-rule="evenodd">
    <path d="M487.792 250.979c-21.999-.482-29.631-5.389-29.438-18.93.165-11.701 10.731-21.764 22.336-21.272 9.186.39 20.397 9.692 19.941 16.545-.572 8.594-8.795 23.746-12.839 23.657zM543.911 339.982c.267-11.725 9.89-21.095 21.445-20.879 11.889.221 21.717 10.521 21.254 22.277-.335 8.518-8.665 15.185-17.146 13.945-2.922-.427-5.974-.59-8.898-.264-12.635 1.408-16.943-2.405-16.655-15.079zM314.679 273.844c8.401 7.09 10.306 13.787 6.352 24.151l-23.898 6.296c-3.44-3.056-7.355-7.741-12.325-10.582-4.242-2.426-5.562-4.758-4.251-9.109 1.376-4.576 3.712-5.757 9.033-5.78 7.658-.034 15.305-2.875 25.089-4.976zM420.401 333.706l7.842-6.896 23.365 6.427 1.181 12.367c-9.569-9.48-19.965-12.357-32.388-11.898z"/>
  </g>
  <g fill="#00A055" fill-rule="evenodd" clip-rule="evenodd">
    <path d="M497.751 353.623c.234 11.62-9.019 21.328-20.703 21.721-11.992.404-22.163-9.199-22.353-21.104-.183-11.447 10.395-22.232 21.723-22.151 11.187.08 21.103 10.089 21.333 21.534zM566.363 272.06c12.354.012 21.54 9.321 21.414 21.705-.115 11.335-10.001 21.4-21.115 21.496-11.573.1-21.766-10.324-21.608-22.095.156-11.655 9.709-21.117 21.309-21.106zM421.85 365.626c-.182 9.697-7.7 18.903-17.126 20.46-6.833 1.129-13.143 1.342-14.875-8.081-.588-3.201-3.305-6.709-6.052-8.679-6.807-4.881-4.98-10.131-1.607-15.577 5.158-8.327 15.068-11.942 24.298-9.174 9.048 2.716 15.54 11.612 15.362 21.051zM341.431 314.057L326.58 298.5c-.213-3.547-.871-10.254-.849-16.958.006-1.853 1.592-4.47 3.22-5.415 7.33-4.257 15.806-4.875 21.737.878 4.903 4.755 7.367 12.203 10.217 18.76.65 1.497-.958 5.002-2.564 6.269-5.903 4.657-12.244 8.763-16.91 12.023zM542.739 227.755l-24.327-11.196c-1.459-5.464 2.39-11.338 8.119-15.938 6.904-5.545 14.914-6.314 22.833-2.233 7.161 3.691 11.324 9.832 11.549 18.019.039 1.475-1.695 3.629-3.17 4.4-5.209 2.721-10.661 4.977-15.004 6.948zM266.964 252.404c-6.061-3.331-14.744 1.472-17.366-8.38-1.929-7.249 3.326-21.626 9.742-25.439 8.085-4.807 18.795-3.504 25.696 3.265 1.463 1.435 2.537 3.265 4.412 5.73-12.211 3.91-20.174 11.515-22.484 24.824zM591.99 385.955l-10.229-28.274c6.199-9.706 18.278-11.402 30.923-1.182a645817.75 645817.75 0 0 0-20.694 29.456zM485.184 400.97l5.31-16.679c4.236 6.521 15.647 5.908 13.948 17.996-6.161-.421-12.445-.85-19.258-1.317z"/>
  </g>
  <g fill="#FCE3EE" fill-rule="evenodd" clip-rule="evenodd">
    <path d="M256.938 213.902c9.809-19.958 18.697-38.187 27.721-56.348 4.545-9.146 9.525-18.079 13.968-27.273 6.108-12.642 16.11-20.849 29.716-22.411 27.431-3.148 55-5.138 82.541-7.229 4.913-.373 10.137 1.42 10.169 7.777.164 31.89.075 63.781.075 96.165-14.834-.199-24.952 4.847-30.137 18.591-13.009-11.001-26.129-11.922-39.478-.812 3.34-18.697-1.343-29.793-14.474-35.104-11.239-4.547-24.386-.466-31.081 9.646-7.995 12.075-5.012 24.273 8.587 39.847-3.095-1.942-5.957-4.719-9.331-5.656-7.475-2.076-12.701-6.271-17.67-12.255-7.429-8.946-18.02-8.171-30.606-4.938zM607.521 214.376c-13.847-5.941-24.957-5.767-34.838 4.354-5.271 5.399-6.496 1.583-7.309-3.644-1.711-11.007-7.597-19.35-18.582-22.1-10.132-2.538-20.01-.776-26.818 8.268-2.438 3.241-3.463 7.513-5.412 11.166-2.23 4.18-4.771 8.195-7.92 13.545-17.115-29.419-45.458-20.663-52.174.299V100.447c25.929 2.03 50.655 4.82 75.447 5.637 19.975.658 30.981 9.836 38.725 27.971 10.582 24.782 23.956 48.37 36.07 72.5 1.017 2.025 1.558 4.285 2.811 7.821zM454.08 239.06l9.316 14.049c-2.7 3.924-6.431 7.923-8.421 12.654-1.856 4.414-1.862 9.605-3.772 14.46l2.877-41.163zM391.359 256.598l4.027-8.031c9.784 2.454 8.084 8.623 5.076 15.639l-9.103-7.608zM274.112 390.438l-21.829-22.979c8.823-3.065 18.462-4.04 24.559-9.199 6.104-5.167 8.667-14.514 12.286-21.122l23.792 17.552c-29.154-3.036-42.97 8.823-38.808 35.748zM436.658 384.163c1.698 5.835 2.856 9.811 4.265 14.646h-50.664l1.677-7.447 44.722-7.199zM287.711 404.287c20.072 3.851 29.87-1.536 36.813-19.759l15.157 2.338 3.36 13.242c-15.357 6.167-51.344 9.272-55.33 4.179zM237.48 293.704l14.51 8.964-11.311 22.672-3.199-1.031v-30.605zM547.221 360.098l-8.121 9.579-7.983-19.446 8.767-1.104c2.274 3.403 4.589 6.861 7.337 10.971zM363.598 362.085l-1.077-8.546 15.956-3.248a45532.69 45532.69 0 0 1-4.426 12.261l-10.453-.467zM504.697 321.088l6.429 21.17-10.46 2.301c.955-8.364 1.845-16.151 2.733-23.939l1.298.468zM623.99 327.371l-9.123 23.514-3.219-.939c1.21-6.881 2.19-13.82 3.892-20.577.24-.951 4.007-1.013 8.45-1.998z"/>
  </g>
  <g fill="#BE1E2D" fill-rule="evenodd" clip-rule="evenodd">
    <path d="M285.346 533.089h29.326c0 4.113-.113 7.637.018 11.15 1.377 36.99 2.985 73.972 4.096 110.97.388 12.92-.364 25.878-.701 38.815-.56 21.496.425 22.729 22.01 25.941v76.771l-84.952-9.326c12.692-35.823 14.153-71.268 17.47-106.328 4.42-46.72 7.563-93.56 11.313-140.344.21-2.625.954-5.207 1.42-7.649zM611.094 784.074l-77.115 13.836c-1.564-29.021-3.042-56.408-4.571-84.756 4.887 0 9.366.398 13.75-.081 9.675-1.06 13.592-5.173 13.562-14.58-.173-54.499-.499-108.997-.737-163.495-.006-1.425.402-2.852.726-4.999l23.392-1.062c11.35 84.523 13.416 169.513 30.993 255.137zM547.881 83.131c-77.219-9.271-153.208-8.458-230.095 2.037 4.663-12.184 10.68-22.789 21.916-29.833 20.763-13.018 43.702-19.731 67.713-22.935 28.131-3.755 56.416-5.974 84.026 2.89 24.992 8.022 44.52 23.038 56.44 47.841zM471.691 441.898c-49.355 0-98.712.164-148.066-.171-7.696-.052-15.543-1.775-23.01-3.846-5.604-1.555-10.628-5.192-9.552-12.335.997-6.618 4.95-11.052 11.793-11.78 14.94-1.591 29.917-4.042 44.877-4.027 51.444.051 102.898.572 154.324 1.874 17.37.44 34.678 3.655 51.987 5.81 2.912.362 6.831.937 8.288 2.897 2.757 3.709 5.652 8.594 5.392 12.799-.16 2.603-5.961 6.813-9.355 6.939-22.556.84-45.146.785-67.725.99-6.317.058-12.635.009-18.952.009l-.001.841z"/>
    <path d="M385.191 838.075c-30.173 6.644-59.833 8.162-89.586 4.731-15.141-1.746-30.062-5.45-45.056-8.402-5.216-1.026-7.324-4.229-6.766-9.741.907-8.97 1.145-18.004 1.925-26.988.446-5.129 2.465-6.889 8.418-5.38 35.311 8.939 71.147 10.554 107.299 6.406 4.165-.479 8.468-.675 12.614-.192 7.075.819 11.549 4.271 11.229 12.368-.342 8.693-.077 17.411-.077 27.198zM506.368 801.892c3.213 0 5.875-.238 8.481.035 37.646 3.966 73.383-4.944 108.709-16.273 8.141-2.61 11.016-1.483 11.741 7.227.674 8.086.319 16.257.963 24.349.471 5.926-3.458 7.373-7.598 8.096-17.133 2.995-34.236 6.597-51.515 8.202-20.584 1.915-41.337 2-62.014 2.907-6.298.277-9.37-1.99-8.896-8.949.551-8.085.129-16.233.129-25.594zM550.986 99.924c-79.841-8.541-158.879-7.28-238.127.935.276-6.944 4.127-11.218 12.985-11.931 23.359-1.879 46.662-6.014 70.007-6.17 39.396-.263 78.817 1.612 118.208 3.131 10.146.391 20.205 2.86 30.319 4.269 6.052.842 8.345 3.985 6.608 9.766zM293.692 459.14c7.459.335 14.596.653 21.578.966v66.845h-29.427l7.849-67.811zM240.976 777.258c9.718-7.588 10.58-18.062 11.464-28.19 3.949-45.213 7.373-90.473 11.378-135.681 2.513-28.376 5.72-56.691 8.616-85.034l2.378-.657c1.029 2.701 3.151 5.496 2.928 8.09-5.75 66.771-11.475 133.549-17.921 200.255-1.317 13.635-5.215 27.061-8.473 40.449-1.814 7.451-5.612 7.932-10.37.768zM575.669 461.798l4.253 61.74-23.475 1.311v-65.754l19.222 2.703zM346.037 719.034h16.421v75.008h-13.025l-3.396-75.008zM617.679 779.287c-3.435-19.731-7.857-39.092-10.025-58.701-6.841-61.892-12.882-123.873-19.045-185.838-.348-3.49.98-7.146 1.527-10.727l2.715.3c1.783 22.695 3.343 45.411 5.402 68.082 3.211 35.351 6.593 70.688 10.244 105.994 1.638 15.84 3.562 31.695 6.486 47.331 1.028 5.493 4.507 11.265 8.483 15.321 9.6 9.799 9.217 12.629-5.787 18.238zM526.475 796.677l-9.354-1.105-6.657-81.71h12.43l3.581 82.815zM380.875 792.85H371.8v-73.722h9.075v73.722zM458.798 22.654l-54.766 3.745c1.437-9.166 8.472-12.16 15.72-12.696 13.614-1.007 28.312-5.475 39.586 6.219l-.54 2.732zM499.319 712.834c1.55 2.255 4.278 4.42 4.459 6.779 1.123 14.635 1.693 29.312 2.409 43.977.491 10.105.922 20.214 1.38 30.321l-2.417 1.208c-1.216-2.123-3.299-4.168-3.499-6.382-.974-10.735-1.411-21.52-2.097-32.281-.895-14.01-1.843-28.017-2.769-42.024.846-.533 1.691-1.065 2.534-1.598zM234.422 781.357l5.693 4.04-4.284 40.349c-11.252-7.127-12.371-34.475-1.409-44.389zM287.465 456.848l-8.317 66.769-2.682.759c-.956-2.363-2.955-4.845-2.704-7.072 1.986-17.598 4.283-35.162 6.798-52.692.44-3.067 2.356-5.924 3.591-8.878 1.104.37 2.209.742 3.314 1.114zM587.562 520.132l-7.864-62.817c10.141 7.683 15.62 53.674 7.864 62.817zM636.754 773.084c14.531 6.711 17.528 30.933 5.026 44.89 0-7.676.653-13.53-.179-19.164-.885-6.001-3.351-11.754-4.759-17.701-.546-2.311-.088-4.858-.088-8.025z"/>
  </g>
  <g fill="#EC148E" fill-rule="evenodd" clip-rule="evenodd">
    <path d="M348.906 211.25c.021 13.12-8.403 19.337-27.038 19.955-7.295.243-16.22-10.759-16.226-20.002-.008-11.393 9.787-21.266 21.353-21.522 12.015-.266 21.891 9.456 21.911 21.569zM401.008 281.635c-.619 1.216-1.373 4.346-3.331 6.214-4.437 4.232-9.544 7.749-14.234 11.729-4.947 4.199-16.653.375-18.447-5.885-1.458-5.086-3.714-9.939-5.268-15.003-.622-2.028-.974-4.572-.312-6.489 3.299-9.566 13.583-15.094 23.78-13.154 10.002 1.902 17.835 11.097 17.812 22.588zM526.343 258.61c-2.431.505-7.059.393-10.424 2.4-6.234 3.716-9.491.532-12.735-3.794-6.12-8.163-5.491-18.793 1.447-26.53 7.03-7.84 17.41-9.916 26.147-4.755 5.289 3.124 10.128 6.64 6.718 14.425-1.23 2.807-1.237 6.801-.302 9.782 2.974 9.48-1.596 10.482-10.851 8.472zM542.726 406.376c-10.869-1.163-18.306-2.208-25.778-2.684-6.51-.415-8.91-4.106-8.956-9.924-.072-9.24 4.034-16.28 12.299-20.33 8.36-4.096 16.585-2.84 23.42 3.319 6.713 6.049 9.994 13.858 5.917 22.611-1.587 3.403-5.553 5.696-6.902 7.008zM469.076 305.093c-1.668-14.247 4.436-23.799 15.985-26.889 9.77-2.615 20.683 3.218 24.778 13.244 4.141 10.132.656 19.473-10.182 26.119-7.018-10.915-17.55-14.57-30.581-12.474zM365.727 400.734c-3.31 0-6.649-.275-9.925.063-5.256.541-8.699-1.198-10.127-6.502-1.382-5.134-.947-8.689 4.705-11.693 4.193-2.228 8.191-6.642 10.044-11.025 2.682-6.344 6.995-6.969 11.325-4.294 5.355 3.307 11.417 7.396 14.109 12.701 6.057 11.938.305 20.041-12.911 20.322-2.406.051-4.813.007-7.22.007v.421zM248.001 322.516c5.936 16.005 17.332 21.406 32.953 19.042-1.853 11.268-8.018 17.993-17.325 19.235-9.729 1.299-16.625-2.145-19.871-9.923-6.621-15.864-6.148-19.717 4.243-28.354zM576.327 221.524c8.461-8.856 19.789-10.049 29.376-2.241 8.411 6.85 9.846 18.454 3.294 28.357-3.311-.841-6.687-2.021-10.159-2.484-3.222-.429-6.547-.092-8.257-.092l-14.254-23.54zM594.294 345.981l-14.272-29.869c5.245-5.625 13.933-6.021 22.381.831 8.136 6.598 10.923 19.365 5.423 26.612-1.113 1.466-3.863 2.081-5.948 2.326-3.213.379-6.503.1-7.584.1zM386.978 341.765l3.276-6.617c8.264 1.182 15.799 2.259 23.335 3.335l-.014 1.33c-3.827-.25-7.688-.941-11.471-.641-4.727.376-9.388 1.567-15.126 2.593z"/>
  </g>
  <g fill="#BCBEC0" fill-rule="evenodd" clip-rule="evenodd">
    <path d="M320.989 450.959h227.54c0 22.755-1.44 242.306-1.44 248.132-1.158 10.753-128.37 7.213-182.192 9.176-9.918.361-19.817 1.226-29.732 1.702-5.401.26-8.441-2.082-8.425-7.96.077-29.469-7.165-235.867-5.751-251.05zm79.315 210.325c20.179 7.537 41.08 9.244 62.15 4.523 26.528-5.942 44.854-20.882 50.978-48.519.326-1.473 1.576-2.984 2.805-3.971 6.076-4.879 8.616-13.433 4.921-19.62-6.211-10.395-13.415-20.225-19.192-30.841-3.907-7.181-7.457-15.084-8.731-23.053-2.173-13.596-1.842-27.574-3.636-41.251-2.636-20.105-11.28-36.148-32.619-41.989-29.465-8.066-55.661 6.048-62.362 35.74-3.526 15.627-2.504 32.236-4.375 48.305-.841 7.229-2.123 15.316-6.044 21.083-7.453 10.961-12.338 23.014-18.42 34.278-6.347 11.755-8.28 15.726 2.216 25.444 4.916 9.076 3.924 22.517 32.309 39.871zM496.726 807v32.011c-31.313 14.767-63.411 15.161-96.143 4.713-6.26-1.997-9.076-5.458-8.572-12.462.667-9.248.164-18.581.164-26.867 17.083 2.273 34.422 6.024 51.849 6.493 17.198.459 34.486-2.405 52.702-3.888zM388.992 776.015V734.17h101.651l1.75 37.229c-35.188-22.259-69.407-28.101-103.401 4.616z"/>
    <path d="M508.473 589.533c-14.294.962-28.581 2.104-42.892 2.67-1.903.075-4.472-2.389-5.801-4.317-11.349-16.472-32.867-16.118-42.693 1.097-3.383 5.928-8.053 7.159-14.28 6.928-9.865-.367-19.754-.098-31.504-.098 1.045-3.892 1.711-8.417 3.501-12.443 1.683-3.783 4.151-7.411 6.973-10.46 10.072-10.891 12.574-23.632 12.647-38.192.077-15.126.808-30.949 5.281-45.203 8.799-28.042 34.229-38.492 61.445-27.395 16.475 6.719 20.926 21.736 23.032 37.148 1.862 13.621.801 27.646 2.723 41.254 1.164 8.244 4.799 16.424 8.695 23.92 4.025 7.746 9.712 14.629 14.672 21.89 2.085 1.609 1.852 3.709-1.799 3.201zm-105.616-76.418c0 22.237 17.316 39.519 39.357 39.279 21.262-.231 38.662-18.049 38.581-39.503-.083-21.56-17.356-38.479-39.234-38.43-22.094.051-38.703 16.637-38.704 38.654zM373.132 620.521c13.335-.751 25.289-1.695 37.255-1.893 2.728-.045 6.204 1.846 8.136 3.947 12.433 13.522 31.616 12.758 43.015-1.828 1.651-2.114 4.341-4.73 6.631-4.812 13.149-.458 26.324-.223 40.446-.223-4.568 19.982-15.504 34.123-33.695 41.25-23.788 9.32-48.156 9.425-72.299.392-16.507-6.174-24.643-19.144-29.489-36.833z"/>
  </g>
  <g fill="#58595B" fill-rule="evenodd" clip-rule="evenodd">
    <path d="M446.438 805.253c-15.536-2.206-31.306-4.143-46.933-6.893-3.591-.63-8.82-3.556-9.479-6.33-.835-3.517 1.17-8.892 3.782-11.851 14.95-16.936 34.157-22.568 56.146-19.093 12.956 2.048 25.142 6.198 34.243 16.311 2.761 3.068 5.255 6.683 6.79 10.483 2.554 6.316 1.065 11.419-6.658 12.491-12.445 1.727-24.925 3.225-37.891 4.882zM448.352 249.038c-6.924-3.468-9.302-6.635-7.625-13.785 2.542-10.841-1.655-19.985-11.079-26.583-2.105-1.475-4.691-4.257-4.695-6.441-.055-31.322.288-62.644.573-93.967.011-1.183.404-2.361.784-4.449l22.042-1.804v147.029zM388.765 727.775v-9.16l100.827-4.792v11.187l-100.827 2.765zM441.419 592.486c7.983.123 13.998 6.799 14.026 15.567.031 9.319-7.278 16.877-16.206 16.756-8.876-.12-17.265-7.302-17.411-14.906-.164-8.517 10.014-17.565 19.591-17.417zM514.018 595.194c1.858 12.137.545 14.496-10.49 15.126-11.637.663-23.347.441-35.001-.013-2.026-.079-5.393-.204-5.895-4.954l1.308-2.319h23.08l-.008-2.089h-23.38l.129-.884c.073-5.121 32.033-5.354 50.257-4.867zM416.658 607.5c.052 7.736-53.37 11.235-53.952-.121 2.448-7.307 29.723-7.485 44.875-5.255 3.22.474 9.362.515 9.077 5.376zM419.078 597.051c3.144-10.923 13.239-16.252 24.39-12.103l-24.39 12.103zM441.566 485.284c15.81-.045 28.296 12.066 28.441 27.589.146 15.465-13.346 28.97-28.711 28.737-15.376-.233-27.644-12.908-27.618-28.532.029-15.959 11.858-27.749 27.888-27.794z"/>
  </g>
</svg>
